<?xml version="1.0" standalone="no"?>
<!DOCTYPE svg PUBLIC "-//W3C//DTD SVG 20010904//EN"
 "http://www.w3.org/TR/2001/REC-SVG-20010904/DTD/svg10.dtd">
<svg version="1.0" xmlns="http://www.w3.org/2000/svg"
 width="960.000000pt" height="540.000000pt" viewBox="0 0 960.000000 540.000000"
 preserveAspectRatio="xMidYMid meet">

<g transform="translate(0.000000,540.000000) scale(0.100000,-0.100000)"
fill="#000000" stroke="none">
<path d="M370 2600 l0 -2240 570 0 570 0 0 1620 0 1620 2405 0 2405 0 0 -655
0 -655 1540 0 1540 0 0 1275 0 1275 -4515 0 -4515 0 0 -2240z m1270 1890 l0
-310 -200 0 -200 0 0 54 c0 94 41 86 -421 86 l-409 0 0 240 0 240 615 0 615 0
0 -310z m640 -110 l0 -420 -300 0 -300 0 0 420 0 420 300 0 300 0 0 -420z
m680 0 l0 -420 -320 0 -320 0 0 420 0 420 320 0 320 0 0 -420z m560 0 l0 -420
-260 0 -260 0 0 420 0 420 260 0 260 0 0 -420z m1260 0 l0 -420 -610 0 -610 0
0 420 0 420 610 0 610 0 0 -420z m610 0 l0 -420 -285 0 -285 0 0 420 0 420
285 0 285 0 0 -420z m930 -20 l0 -440 945 0 945 0 0 -140 0 -140 -3367 -2
-3368 -3 -3 -1617 -2 -1618 -530 0 -530 0 0 1025 0 1025 415 0 415 0 0 845 0
845 200 0 200 0 0 -110 0 -110 1895 0 1895 0 0 440 0 440 445 0 445 0 0 -440z
m920 20 l0 -420 -440 0 -440 0 0 420 0 420 440 0 440 0 0 -420z m970 0 l0
-420 -465 0 -465 0 0 420 0 420 465 0 465 0 0 -420z m1150 -815 l0 -1235 -555
0 -555 0 0 1235 0 1235 555 0 555 0 0 -1235z m-8160 395 l0 -320 -395 0 -395
0 0 320 0 320 395 0 395 0 0 -320z m0 -600 l0 -240 -395 0 -395 0 0 240 0 240
395 0 395 0 0 -240z m7010 -395 l0 -635 -925 0 -925 0 0 635 0 635 925 0 925
0 0 -635z m-7010 -180 l0 -295 -395 0 -395 0 0 295 0 295 395 0 395 0 0 -295z"/>
</g>
</svg>
